<svg xmlns="http://www.w3.org/2000/svg" xmlns:xlink="http://www.w3.org/1999/xlink" preserveAspectRatio="xMidYMid" width="100" height="100" viewBox="0 0 100 100">
  <defs>
    <style>
      .cls-1 {
        fill: #fff;
        fill-rule: evenodd;
      }
    </style>
  </defs>
  <path d="M99.000,51.169 C99.000,79.698 79.541,100.000 50.803,100.000 C23.251,100.000 1.000,77.661 1.000,50.000 C1.000,22.339 23.251,-0.000 50.803,-0.000 C64.218,-0.000 75.504,4.940 84.200,13.085 L70.644,26.169 C52.912,8.992 19.937,21.895 19.937,50.000 C19.937,67.440 33.814,81.573 50.803,81.573 C70.524,81.573 77.914,67.379 79.079,60.020 L50.803,60.020 L50.803,42.823 L98.217,42.823 C98.679,45.383 99.000,47.843 99.000,51.169 L99.000,51.169 Z" class="cls-1"/>
</svg>
