<svg xmlns="http://www.w3.org/2000/svg" xmlns:xlink="http://www.w3.org/1999/xlink" preserveAspectRatio="xMidYMid" width="100" height="100" viewBox="0 0 100 100">
  <defs>
    <style>
      .cls-1 {
        fill: #fff;
        fill-rule: evenodd;
      }
    </style>
  </defs>
  <path d="M22.384,100.000 L1.652,100.000 L1.652,33.235 L22.384,33.235 L22.384,100.000 ZM12.007,24.128 C5.377,24.128 -0.000,18.637 -0.000,12.007 C-0.000,5.376 5.376,0.000 12.007,0.000 C18.638,0.000 24.013,5.376 24.013,12.007 C24.013,18.637 18.634,24.128 12.007,24.128 ZM99.978,100.000 L79.290,100.000 L79.290,67.499 C79.290,59.754 79.134,49.820 68.511,49.820 C57.732,49.820 56.080,58.236 56.080,66.941 L56.080,100.000 L35.371,100.000 L35.371,33.235 L55.254,33.235 L55.254,42.342 L55.545,42.342 C58.313,37.097 65.074,31.561 75.161,31.561 C96.143,31.561 100.000,45.378 100.000,63.325 L100.000,100.000 L99.978,100.000 Z" class="cls-1"/>
</svg>
