<svg xmlns="http://www.w3.org/2000/svg" xmlns:xlink="http://www.w3.org/1999/xlink" preserveAspectRatio="xMidYMid" width="100" height="100" viewBox="0 0 100 100">
  <defs>
    <style>
      .cls-1 {
        fill: #fff;
        fill-rule: evenodd;
      }
    </style>
  </defs>
  <path d="M89.721,29.937 C89.785,30.812 89.785,31.688 89.785,32.563 C89.785,59.250 69.163,90.000 31.472,90.000 C19.860,90.000 9.074,86.687 0.000,80.938 C1.650,81.125 3.236,81.188 4.949,81.188 C14.530,81.188 23.350,78.000 30.393,72.563 C21.383,72.375 13.832,66.563 11.231,58.563 C12.500,58.750 13.769,58.875 15.102,58.875 C16.942,58.875 18.782,58.625 20.495,58.188 C11.104,56.312 4.061,48.187 4.061,38.375 L4.061,38.125 C6.789,39.625 9.962,40.563 13.325,40.687 C7.804,37.062 4.188,30.875 4.188,23.875 C4.188,20.125 5.203,16.687 6.980,13.687 C17.068,25.937 32.234,33.937 49.238,34.812 C48.921,33.312 48.731,31.750 48.731,30.188 C48.731,19.062 57.868,10.000 69.226,10.000 C75.127,10.000 80.457,12.438 84.201,16.375 C88.832,15.500 93.274,13.812 97.208,11.500 C95.685,16.188 92.449,20.125 88.198,22.625 C92.322,22.188 96.320,21.062 100.000,19.500 C97.209,23.500 93.719,27.062 89.721,29.937 L89.721,29.937 Z" class="cls-1"/>
</svg>
